HIERARCHY
ROOT pelvis
{
  OFFSET 0 100 0
  CHANNELS 6 Xposition Yposition Zposition Zrotation Xrotation Yrotation
  JOINT pelvis_right_femur
  {
    OFFSET -10.78128 -3.44521 -0.5502486
    CHANNELS 3 Zrotation Xrotation Yrotation
    JOINT right_femur_tibia
    {
      OFFSET -0.8047443 -44.0398 -0.1307829
      CHANNELS 3 Zrotation Xrotation Yrotation
      JOINT right_tibia_foot
      {
        OFFSET 3.006224 -47.83518 -5
        CHANNELS 3 Zrotation Xrotation Yrotation
        End Site
        {
          OFFSET 0 -5 15
        }
      }
    }
  }
  JOINT pelvis_left_femur
  {
    OFFSET 10.78128 -3.44521 -0.5502486
    CHANNELS 3 Zrotation Xrotation Yrotation
    JOINT left_femur_tibia
    {
      OFFSET 0.8047443 -44.0398 -0.1307829
      CHANNELS 3 Zrotation Xrotation Yrotation
      JOINT left_tibia_foot
      {
        OFFSET -4.370144 -48.10324 -4.275266
        CHANNELS 3 Zrotation Xrotation Yrotation
        End Site
        {
          OFFSET 0 -5 15
        }
      }
    }
  }
  JOINT pelvis_spine1
  {
    OFFSET 0 6.468898 -3.129235
    CHANNELS 3 Zrotation Xrotation Yrotation
    JOINT spine1
    {
      OFFSET 0 23.15396 4.99043
      CHANNELS 3 Zrotation Xrotation Yrotation
      JOINT spine2
      {
        OFFSET 0 20.79997 -5.064912
        CHANNELS 3 Zrotation Xrotation Yrotation
        JOINT neck
        {
          OFFSET 0 14.38658 9.616178
          CHANNELS 3 Zrotation Xrotation Yrotation
          End Site
          {
            OFFSET 0 20 0
          }
        }
      }
      JOINT right_manubrium
      {
        OFFSET -5.722621 16.35077 3.967754
        CHANNELS 3 Zrotation Xrotation Yrotation
        JOINT right_clavicle
        {
          OFFSET -13.16364 1.694482 -4.693211
          CHANNELS 3 Zrotation Xrotation Yrotation
          JOINT right_humerus
          {
            OFFSET -28.5034 -0.3100689 -2.792744
            CHANNELS 3 Zrotation Xrotation Yrotation
            JOINT right_radius
            {
              OFFSET -25.15693 0.02248979 -1.271978
              CHANNELS 3 Zrotation Xrotation Yrotation
              End Site
              {
                OFFSET -15 0 0
              }
            }
          }
        }
      }
      JOINT left_manubrium
      {
        OFFSET 5.722621 16.35077 3.967754
        CHANNELS 3 Zrotation Xrotation Yrotation
        JOINT left_clavicle
        {
          OFFSET 13.16364 1.694482 -4.693211
          CHANNELS 3 Zrotation Xrotation Yrotation
          JOINT left_humerus
          {
            OFFSET 29.39168 -1.063119 -2.237045
            CHANNELS 3 Zrotation Xrotation Yrotation
            JOINT left_radius
            {
              OFFSET 24.59957 -0.9528479 0.9047498
              CHANNELS 3 Zrotation Xrotation Yrotation
              End Site
              {
                OFFSET 15 -0 -0
              }
            }
          }
        }
      }
    }
  }
}
MOTION
Frames: 17
Frame Time: 0.0416666666667
0 103.5113 0 2.095199 -2.197313 0.1404992 1.568151 -9.933816 8.497173 -0 37.7322 -0 -5.156164 -17.73191 -3.795922 -7.576376 10.58688 -23.09091 -0 3.403531 -0 9.096752 -14.08274 25.92938 -1.644048 -3.43432 5.973768 2.091926 10.03057 -7.13474 2.040407 22.02238 5.128374 2.147946 -25.33658 9.341139 5.557622 -19.62756 10.12916 86.20028 34.58954 -20.12888 -0 0 15.73805 -6.315802 8.640666 2.248611 6.456084 -20.84652 -1.318851 -96.54912 27.68356 25.53478 0 0 -13.9713 9.926082 18.22411 4.291916
0.3534637 103.473 1.441819 1.791853 -1.341582 0.1960181 2.324751 -13.48739 9.239003 -0 38.01258 -0 -4.521461 -17.45957 -3.985116 -7.548921 11.31452 -23.44875 -0 3.82824 -0 8.668743 -15.71469 26.27665 -1.66114 -3.463976 6.099004 1.970792 10.07362 -6.997001 2.066181 22.18172 4.976958 2.07473 -25.09642 9.237409 5.575955 -19.68054 10.06324 86.01019 34.66695 -19.81016 -0 0 15.86815 -6.436874 8.67388 2.307559 6.335755 -20.75347 -1.401427 -96.75292 27.87746 25.87341 0 0 -13.6181 9.756794 18.39746 4.541781
0.6117707 103.2904 3.009128 1.206465 -1.368433 0.2804225 3.000587 -16.94066 8.135825 -0 37.35578 -0 -5.716303 -15.02029 -3.538067 -7.110943 12.03262 -23.47395 -0 4.925963 -0 5.941483 -18.38693 25.59029 -1.42021 -2.939621 5.626747 2.346342 9.920859 -7.442631 1.853914 21.50614 5.718498 2.504784 -25.96572 9.512299 5.446436 -19.30028 10.35566 86.86445 34.89538 -20.89563 -0 0 14.78135 -6.349048 8.709508 2.577205 6.623869 -21.19423 -1.334366 -95.40917 27.21169 24.22768 0 0 -16.15938 10.17833 16.91842 4.062035
0.8303558 102.994 4.769402 0.6531156 -0.8727815 0.357771 3.888159 -20.60486 7.568047 -0 35.30568 -0 -6.191068 -13.24216 -3.173015 -6.739098 12.31902 -22.91949 -0 5.516838 -0 5.002894 -20.03871 25.01493 -1.299114 -2.653667 5.374399 2.540407 9.842941 -7.670823 1.732465 21.15662 6.105091 2.733347 -26.3746 9.632579 5.377922 -19.08196 10.51029 87.30534 35.04447 -21.43239 -0 0 14.16538 -6.35802 8.768088 2.781544 6.752682 -21.42984 -1.324531 -94.64406 26.82662 23.31336 0 0 -17.56351 10.37899 16.08566 3.82484
1.026416 102.6035 6.755398 0.05199043 0.189867 0.4627098 4.980523 -24.73378 7.580359 -0 32.57757 -0 -6.103531 -11.84613 -3.004719 -6.381451 12.46196 -22.22577 -0 5.863552 -0 4.266147 -21.67718 24.33881 -1.116928 -2.325165 5.061925 2.775027 9.733175 -7.973741 1.605674 20.71083 6.569491 3.023127 -26.89471 9.795429 5.28059 -18.81557 10.6703 87.92356 35.17682 -22.23284 -0 0 13.41917 -6.294279 8.853256 2.925879 6.969107 -21.77889 -1.320286 -93.76695 26.48318 22.22243 0 0 -19.43034 10.5746 15.15532 3.653125
1.219846 102.118 9.051318 -0.5113848 1.481998 0.6301909 6.126786 -28.63366 7.812248 -0 29.17644 -0 -5.829813 -10.46431 -2.861046 -6.092464 12.56514 -21.3187 -0 6.12974 -0 4.080775 -22.88321 23.67645 -0.9730646 -2.054915 4.802771 2.966072 9.650708 -8.221408 1.493718 20.35011 6.942846 3.259025 -27.27861 9.905291 5.201371 -18.58499 10.80085 88.43788 35.30026 -22.8853 -0 0 12.77108 -6.282771 8.954735 3.086233 7.128544 -22.07557 -1.345161 -93.00484 26.18009 21.29311 0 0 -21.02171 10.70995 14.35149 3.54035
1.420604 101.5582 11.75264 -1.062652 2.907731 0.8925303 7.286945 -32.17819 8.171766 -0 25.46814 -0 -5.553272 -8.964447 -2.7146 -5.838667 12.77295 -20.30606 -0 6.562912 -0 3.972343 -23.75286 22.86467 -0.8275566 -1.80833 4.5715 3.1305 9.584841 -8.44988 1.391501 20.02254 7.271629 3.475719 -27.5993 9.98528 5.125193 -18.36947 10.90777 88.95041 35.41699 -23.53555 -0 0 12.15041 -6.283396 9.071882 3.228322 7.272892 -22.37908 -1.406852 -92.30452 25.96043 20.45132 0 0 -22.58372 10.77565 13.60921 3.545303
1.633703 100.9553 14.9553 -1.579883 4.234925 1.269127 8.324433 -34.97569 8.451279 -0 21.89514 -0 -5.492646 -7.333297 -2.497999 -5.614909 13.19569 -19.24926 -0 7.508443 -0 3.748856 -24.09816 21.78323 -0.7071722 -1.597355 4.389249 3.253583 9.554133 -8.631729 1.297185 19.76605 7.526566 3.649307 -27.80393 10.01149 5.066214 -18.1822 10.99435 89.3952 35.53938 -24.08013 -0 0 11.59415 -6.342423 9.202513 3.390504 7.360467 -22.64532 -1.509162 -91.69112 25.78925 19.74718 0 0 -23.94013 10.77101 12.94743 3.639432
1.8607 100.3637 18.74211 -2.062854 5.269637 1.760562 9.123147 -36.72431 8.479492 -0 18.88305 -0 -5.775496 -5.694082 -2.190571 -5.388294 13.84296 -18.20404 -0 9.384264 -0 3.057138 -23.79001 20.23254 -0.6062576 -1.4152 4.260731 3.330078 9.5639 -8.765579 1.209868 19.58119 7.708632 3.781999 -27.89158 9.979818 5.024756 -18.02438 11.0616 89.78056 35.6729 -24.52746 -0 0 11.10008 -6.469148 9.347609 3.572397 7.389496 -22.8786 -1.658292 -91.16784 25.68503 19.19091 0 0 -25.10146 10.67981 12.36158 3.854131
2.10237 99.8631 23.15809 -2.492771 5.812992 2.334399 9.588992 -37.09502 8.131762 -0 16.82784 -0 -6.433737 -4.291323 -1.806419 -5.129888 14.55539 -17.19374 -0 12.65696 -0 1.69458 -22.63879 18.12088 -0.5340401 -1.259466 4.194493 3.352899 9.621914 -8.840862 1.126963 19.48062 7.811395 3.868161 -27.84158 9.879663 5.005806 -17.89942 11.11509 90.07819 35.82686 -24.83074 -0 0 10.6809 -6.698533 9.512202 3.798571 7.343469 -23.06139 -1.852582 -90.73631 25.62837 18.79435 0 0 -26.00252 10.49791 11.84903 4.180742
2.360928 99.56016 28.18914 -2.845028 5.734069 2.919842 9.725027 -35.85163 7.411282 -0 15.93265 -0 -7.371406 -3.395847 -1.411773 -4.8083 14.94766 -16.18575 -0 17.73525 -0 -0.3408149 -20.49215 15.5428 -0.4929324 -1.125058 4.197674 3.315021 9.730801 -8.850845 1.046934 19.46929 7.834601 3.908474 -27.64256 9.70506 5.009546 -17.81086 11.15889 90.26924 36.00705 -24.95902 -0 0 10.34949 -7.064212 9.704489 4.087372 7.216591 -23.18578 -2.087385 -90.39803 25.61446 18.56683 0 0 -26.61401 10.21372 11.40677 4.628346
2.641152 99.57278 33.74341 -3.083177 5.009242 3.409221 9.627592 -32.93654 6.459646 -0 16.07913 -0 -8.392721 -3.194826 -1.100284 -4.409572 14.43684 -15.08519 -0 24.7948 -0 -2.692233 -17.32878 12.86922 -0.4883441 -1.007737 4.277855 3.209592 9.888718 -8.786929 0.968635 19.5511 7.779711 3.904439 -27.2833 9.452492 5.033708 -17.76442 11.19834 90.32016 36.216 -24.86175 -0 0 10.12948 -7.610213 9.934769 4.465222 7.00508 -23.23817 -2.348793 -90.15395 25.62614 18.5161 0 0 -26.89187 9.820613 11.03213 5.191254
2.949421 99.99363 39.65257 -3.155798 3.753483 3.680063 9.393107 -28.56214 5.467532 -0 16.72986 -0 -9.284209 -3.682515 -0.9344244 -3.951801 12.43384 -13.77263 -0 33.54461 -0 -4.720283 -13.42671 10.63615 -0.5229064 -0.9042252 4.442907 3.029763 10.0861 -8.640659 0.8931238 19.72403 7.652576 3.861488 -26.76197 9.12534 5.070625 -17.76993 11.23701 90.19187 36.4486 -24.48471 -0 0 10.05741 -8.379961 10.21186 4.955565 6.714891 -23.20612 -2.61379 -90.01091 25.65166 18.65463 0 0 -26.80095 9.312201 10.72709 5.864986
3.289569 100.8397 45.70234 -2.987338 2.188843 3.641628 9.010217 -23.1929 4.556201 -0 17.0613 -0 -9.921509 -4.651578 -0.8897855 -3.484787 8.670543 -12.20095 -0 43.0385 -0 -5.774583 -9.423994 9.291386 -0.5969619 -0.813033 4.699454 2.770734 10.30409 -8.404069 0.8239602 19.97869 7.464005 3.788348 -26.09019 8.736175 5.107212 -17.84125 11.27628 89.83895 36.6904 -23.76967 -0 0 10.18256 -9.408313 10.53868 5.576984 6.36203 -23.07661 -2.849297 -89.98093 25.68019 18.99765 0 0 -26.31447 8.689298 10.4974 6.635799
3.655693 102.0142 51.68716 -2.499465 0.5556791 3.291888 8.379971 -17.38444 3.754384 -0 16.37784 -0 -10.31285 -5.811403 -0.873764 -3.056187 3.43766 -10.48077 -0 51.69965 -0 -5.562709 -6.118386 8.981459 -0.7064232 -0.7342197 5.049766 2.432441 10.51505 -8.07289 0.7667686 20.29578 7.23068 3.69706 -25.2975 8.307439 5.126026 -17.99362 11.31446 89.22159 36.91794 -22.67111 -0 0 10.55726 -10.70798 10.90907 6.336649 5.972969 -22.84061 -3.017361 -90.07736 25.70531 19.55764 0 0 -25.43358 7.962468 10.34933 7.481967
4.028867 103.3078 57.4624 -1.691682 -0.9713422 2.738675 7.470301 -11.58438 3.077645 -0 14.56579 -0 -10.53602 -6.952789 -0.811248 -2.650759 -2.538586 -8.832878 -0 57.66812 -0 -4.322998 -4.065013 9.566435 -0.8436164 -0.6684608 5.487537 2.023259 10.68779 -7.650759 0.726865 20.64636 6.97419 3.601027 -24.4289 7.867526 5.108811 -18.23778 11.34814 88.32037 37.10177 -21.17374 -0 0 11.21871 -12.26241 11.30807 7.229571 5.579427 -22.49679 -3.084387 -90.30282 25.7178 20.3296 0 0 -24.20105 7.15558 10.27992 8.369369
4.389457 104.4485 62.96875 -0.7245728 -2.290241 2.149238 6.43894 -6.065118 2.583832 -0 12.16434 -0 -10.62924 -8.034518 -0.6969008 -2.133831 -8.498553 -7.405262 -0 59.38978 -0 -2.639093 -3.275699 10.76796 -0.9989152 -0.615929 5.995386 1.561785 10.79624 -7.152835 0.7066172 20.99485 6.71854 3.512853 -23.53667 7.44414 5.040694 -18.57423 11.37481 87.15194 37.20936 -19.31044 -0 0 12.17107 -14.02819 11.71588 8.240173 5.21165 -22.05534 -3.031844 -90.63827 25.69973 21.27818 0 0 -22.70659 6.303156 10.26764 9.254616
